P3
# Created by GIMP version 2.10.34 PNM plug-in
64 64
255
143
79
46
143
79
46
143
79
46
123
49
12
123
49
12
123
49
12
123
49
12
123
49
12
123
49
12
23
9
2
194
116
77
143
79
46
143
79
46
143
79
46
143
79
46
143
79
46
143
79
46
143
79
46
143
79
46
123
49
12
123
49
12
123
49
12
123
49
12
123
49
12
123
49
12
23
9
2
194
116
77
143
79
46
143
79
46
143
79
46
143
79
46
143
79
46
143
79
46
143
79
46
143
79
46
123
49
12
123
49
12
123
49
12
123
49
12
123
49
12
123
49
12
23
9
2
194
116
77
143
79
46
143
79
46
143
79
46
143
79
46
143
79
46
143
79
46
143
79
46
143
79
46
123
49
12
123
49
12
123
49
12
123
49
12
123
49
12
123
49
12
23
9
2
194
116
77
143
79
46
143
79
46
143
79
46
143
79
46
143
79
46
80
31
6
80
31
6
80
31
6
80
31
6
80
31
6
80
31
6
80
31
6
80
31
6
80
31
6
23
9
2
143
79
46
194
116
77
137
69
34
80
31
6
80
31
6
80
31
6
80
31
6
80
31
6
80
31
6
80
31
6
80
31
6
80
31
6
80
31
6
80
31
6
80
31
6
23
9
2
143
79
46
194
116
77
137
69
34
80
31
6
80
31
6
80
31
6
80
31
6
80
31
6
80
31
6
80
31
6
80
31
6
80
31
6
80
31
6
80
31
6
80
31
6
23
9
2
143
79
46
194
116
77
137
69
34
80
31
6
80
31
6
80
31
6
80
31
6
80
31
6
80
31
6
80
31
6
80
31
6
80
31
6
80
31
6
80
31
6
80
31
6
23
9
2
143
79
46
194
116
77
137
69
34
80
31
6
80
31
6
80
31
6
80
31
6
80
31
6
80
31
6
80
31
6
80
31
6
80
31
6
80
31
6
80
31
6
49
19
4
23
9
2
143
79
46
137
69
34
80
31
6
80
31
6
80
31
6
80
31
6
80
31
6
80
31
6
80
31
6
80
31
6
80
31
6
80
31
6
80
31
6
80
31
6
49
19
4
23
9
2
143
79
46
137
69
34
80
31
6
80
31
6
80
31
6
80
31
6
80
31
6
80
31
6
80
31
6
80
31
6
80
31
6
80
31
6
80
31
6
80
31
6
49
19
4
23
9
2
143
79
46
137
69
34
80
31
6
80
31
6
80
31
6
80
31
6
80
31
6
80
31
6
80
31
6
80
31
6
80
31
6
80
31
6
80
31
6
80
31
6
49
19
4
23
9
2
143
79
46
137
69
34
80
31
6
80
31
6
80
31
6
80
31
6
80
31
6
80
31
6
80
31
6
80
31
6
80
31
6
80
31
6
49
19
4
49
19
4
49
19
4
23
9
2
137
69
34
80
31
6
80
31
6
80
31
6
80
31
6
80
31
6
80
31
6
80
31
6
80
31
6
80
31
6
80
31
6
80
31
6
49
19
4
49
19
4
49
19
4
23
9
2
137
69
34
80
31
6
80
31
6
80
31
6
80
31
6
80
31
6
80
31
6
80
31
6
80
31
6
80
31
6
80
31
6
80
31
6
49
19
4
49
19
4
49
19
4
23
9
2
137
69
34
80
31
6
80
31
6
80
31
6
80
31
6
80
31
6
80
31
6
80
31
6
80
31
6
80
31
6
80
31
6
80
31
6
49
19
4
49
19
4
49
19
4
23
9
2
137
69
34
80
31
6
80
31
6
80
31
6
80
31
6
80
31
6
23
9
2
23
9
2
23
9
2
23
9
2
23
9
2
23
9
2
23
9
2
23
9
2
23
9
2
23
9
2
23
9
2
23
9
2
23
9
2
23
9
2
23
9
2
23
9
2
23
9
2
23
9
2
23
9
2
23
9
2
23
9
2
23
9
2
23
9
2
23
9
2
23
9
2
23
9
2
23
9
2
23
9
2
23
9
2
23
9
2
23
9
2
23
9
2
23
9
2
23
9
2
23
9
2
23
9
2
23
9
2
23
9
2
23
9
2
23
9
2
23
9
2
23
9
2
23
9
2
23
9
2
23
9
2
23
9
2
23
9
2
23
9
2
23
9
2
23
9
2
23
9
2
23
9
2
23
9
2
23
9
2
23
9
2
23
9
2
23
9
2
23
9
2
23
9
2
23
9
2
23
9
2
23
9
2
23
9
2
23
9
2
194
116
77
143
79
46
143
79
46
143
79
46
143
79
46
143
79
46
143
79
46
143
79
46
143
79
46
123
49
12
123
49
12
123
49
12
123
49
12
123
49
12
123
49
12
23
9
2
194
116
77
143
79
46
143
79
46
143
79
46
143
79
46
143
79
46
143
79
46
143
79
46
143
79
46
123
49
12
123
49
12
123
49
12
123
49
12
123
49
12
123
49
12
23
9
2
194
116
77
143
79
46
143
79
46
143
79
46
143
79
46
143
79
46
143
79
46
143
79
46
143
79
46
123
49
12
123
49
12
123
49
12
123
49
12
123
49
12
123
49
12
23
9
2
194
116
77
143
79
46
143
79
46
143
79
46
143
79
46
143
79
46
143
79
46
143
79
46
143
79
46
123
49
12
123
49
12
123
49
12
123
49
12
123
49
12
123
49
12
23
9
2
143
79
46
194
116
77
137
69
34
80
31
6
80
31
6
80
31
6
80
31
6
80
31
6
80
31
6
80
31
6
80
31
6
80
31
6
80
31
6
80
31
6
80
31
6
23
9
2
143
79
46
194
116
77
137
69
34
80
31
6
80
31
6
80
31
6
80
31
6
80
31
6
80
31
6
80
31
6
80
31
6
80
31
6
80
31
6
80
31
6
80
31
6
23
9
2
143
79
46
194
116
77
137
69
34
80
31
6
80
31
6
80
31
6
80
31
6
80
31
6
80
31
6
80
31
6
80
31
6
80
31
6
80
31
6
80
31
6
80
31
6
23
9
2
143
79
46
194
116
77
137
69
34
80
31
6
80
31
6
80
31
6
80
31
6
80
31
6
80
31
6
80
31
6
80
31
6
80
31
6
80
31
6
80
31
6
80
31
6
23
9
2
143
79
46
137
69
34
80
31
6
80
31
6
80
31
6
80
31
6
80
31
6
80
31
6
80
31
6
80
31
6
80
31
6
80
31
6
80
31
6
80
31
6
49
19
4
23
9
2
143
79
46
137
69
34
80
31
6
80
31
6
80
31
6
80
31
6
80
31
6
80
31
6
80
31
6
80
31
6
80
31
6
80
31
6
80
31
6
80
31
6
49
19
4
23
9
2
143
79
46
137
69
34
80
31
6
80
31
6
80
31
6
80
31
6
80
31
6
80
31
6
80
31
6
80
31
6
80
31
6
80
31
6
80
31
6
80
31
6
49
19
4
23
9
2
143
79
46
137
69
34
80
31
6
80
31
6
80
31
6
80
31
6
80
31
6
80
31
6
80
31
6
80
31
6
80
31
6
80
31
6
80
31
6
80
31
6
49
19
4
23
9
2
137
69
34
80
31
6
80
31
6
80
31
6
80
31
6
80
31
6
80
31
6
80
31
6
80
31
6
80
31
6
80
31
6
80
31
6
49
19
4
49
19
4
49
19
4
23
9
2
137
69
34
80
31
6
80
31
6
80
31
6
80
31
6
80
31
6
80
31
6
80
31
6
80
31
6
80
31
6
80
31
6
80
31
6
49
19
4
49
19
4
49
19
4
23
9
2
137
69
34
80
31
6
80
31
6
80
31
6
80
31
6
80
31
6
80
31
6
80
31
6
80
31
6
80
31
6
80
31
6
80
31
6
49
19
4
49
19
4
49
19
4
23
9
2
137
69
34
80
31
6
80
31
6
80
31
6
80
31
6
80
31
6
80
31
6
80
31
6
80
31
6
80
31
6
80
31
6
80
31
6
49
19
4
49
19
4
49
19
4
23
9
2
23
9
2
23
9
2
23
9
2
23
9
2
23
9
2
23
9
2
23
9
2
23
9
2
23
9
2
23
9
2
23
9
2
23
9
2
23
9
2
23
9
2
23
9
2
23
9
2
23
9
2
23
9
2
23
9
2
23
9
2
23
9
2
23
9
2
23
9
2
23
9
2
23
9
2
23
9
2
23
9
2
23
9
2
23
9
2
23
9
2
23
9
2
23
9
2
23
9
2
23
9
2
23
9
2
23
9
2
23
9
2
23
9
2
23
9
2
23
9
2
23
9
2
23
9
2
23
9
2
23
9
2
23
9
2
23
9
2
23
9
2
23
9
2
23
9
2
23
9
2
23
9
2
23
9
2
23
9
2
23
9
2
23
9
2
23
9
2
23
9
2
23
9
2
23
9
2
23
9
2
23
9
2
23
9
2
23
9
2
23
9
2
123
49
12
123
49
12
123
49
12
123
49
12
123
49
12
23
9
2
194
116
77
143
79
46
143
79
46
143
79
46
143
79
46
143
79
46
143
79
46
143
79
46
143
79
46
123
49
12
123
49
12
123
49
12
123
49
12
123
49
12
123
49
12
23
9
2
194
116
77
143
79
46
143
79
46
143
79
46
143
79
46
143
79
46
143
79
46
143
79
46
143
79
46
123
49
12
123
49
12
123
49
12
123
49
12
123
49
12
123
49
12
23
9
2
194
116
77
143
79
46
143
79
46
143
79
46
143
79
46
143
79
46
143
79
46
143
79
46
143
79
46
123
49
12
123
49
12
123
49
12
123
49
12
123
49
12
123
49
12
23
9
2
194
116
77
143
79
46
143
79
46
143
79
46
143
79
46
143
79
46
143
79
46
143
79
46
143
79
46
123
49
12
80
31
6
80
31
6
80
31
6
80
31
6
80
31
6
23
9
2
143
79
46
194
116
77
137
69
34
80
31
6
80
31
6
80
31
6
80
31
6
80
31
6
80
31
6
80
31
6
80
31
6
80
31
6
80
31
6
80
31
6
80
31
6
23
9
2
143
79
46
194
116
77
137
69
34
80
31
6
80
31
6
80
31
6
80
31
6
80
31
6
80
31
6
80
31
6
80
31
6
80
31
6
80
31
6
80
31
6
80
31
6
23
9
2
143
79
46
194
116
77
137
69
34
80
31
6
80
31
6
80
31
6
80
31
6
80
31
6
80
31
6
80
31
6
80
31
6
80
31
6
80
31
6
80
31
6
80
31
6
23
9
2
143
79
46
194
116
77
137
69
34
80
31
6
80
31
6
80
31
6
80
31
6
80
31
6
80
31
6
80
31
6
80
31
6
80
31
6
80
31
6
80
31
6
49
19
4
23
9
2
143
79
46
137
69
34
80
31
6
80
31
6
80
31
6
80
31
6
80
31
6
80
31
6
80
31
6
80
31
6
80
31
6
80
31
6
80
31
6
80
31
6
49
19
4
23
9
2
143
79
46
137
69
34
80
31
6
80
31
6
80
31
6
80
31
6
80
31
6
80
31
6
80
31
6
80
31
6
80
31
6
80
31
6
80
31
6
80
31
6
49
19
4
23
9
2
143
79
46
137
69
34
80
31
6
80
31
6
80
31
6
80
31
6
80
31
6
80
31
6
80
31
6
80
31
6
80
31
6
80
31
6
80
31
6
80
31
6
49
19
4
23
9
2
143
79
46
137
69
34
80
31
6
80
31
6
80
31
6
80
31
6
80
31
6
80
31
6
80
31
6
80
31
6
80
31
6
80
31
6
49
19
4
49
19
4
49
19
4
23
9
2
137
69
34
80
31
6
80
31
6
80
31
6
80
31
6
80
31
6
80
31
6
80
31
6
80
31
6
80
31
6
80
31
6
80
31
6
49
19
4
49
19
4
49
19
4
23
9
2
137
69
34
80
31
6
80
31
6
80
31
6
80
31
6
80
31
6
80
31
6
80
31
6
80
31
6
80
31
6
80
31
6
80
31
6
49
19
4
49
19
4
49
19
4
23
9
2
137
69
34
80
31
6
80
31
6
80
31
6
80
31
6
80
31
6
80
31
6
80
31
6
80
31
6
80
31
6
80
31
6
80
31
6
49
19
4
49
19
4
49
19
4
23
9
2
137
69
34
80
31
6
80
31
6
80
31
6
80
31
6
80
31
6
80
31
6
80
31
6
80
31
6
80
31
6
23
9
2
23
9
2
23
9
2
23
9
2
23
9
2
23
9
2
23
9
2
23
9
2
23
9
2
23
9
2
23
9
2
23
9
2
23
9
2
23
9
2
23
9
2
23
9
2
23
9
2
23
9
2
23
9
2
23
9
2
23
9
2
23
9
2
23
9
2
23
9
2
23
9
2
23
9
2
23
9
2
23
9
2
23
9
2
23
9
2
23
9
2
23
9
2
23
9
2
23
9
2
23
9
2
23
9
2
23
9
2
23
9
2
23
9
2
23
9
2
23
9
2
23
9
2
23
9
2
23
9
2
23
9
2
23
9
2
23
9
2
23
9
2
23
9
2
23
9
2
23
9
2
23
9
2
23
9
2
23
9
2
23
9
2
23
9
2
23
9
2
23
9
2
23
9
2
23
9
2
23
9
2
23
9
2
23
9
2
23
9
2
143
79
46
143
79
46
143
79
46
143
79
46
143
79
46
123
49
12
123
49
12
123
49
12
123
49
12
123
49
12
123
49
12
23
9
2
194
116
77
143
79
46
143
79
46
143
79
46
143
79
46
143
79
46
143
79
46
143
79
46
143
79
46
123
49
12
123
49
12
123
49
12
123
49
12
123
49
12
123
49
12
23
9
2
194
116
77
143
79
46
143
79
46
143
79
46
143
79
46
143
79
46
143
79
46
143
79
46
143
79
46
123
49
12
123
49
12
123
49
12
123
49
12
123
49
12
123
49
12
23
9
2
194
116
77
143
79
46
143
79
46
143
79
46
143
79
46
143
79
46
143
79
46
143
79
46
143
79
46
123
49
12
123
49
12
123
49
12
123
49
12
123
49
12
123
49
12
23
9
2
194
116
77
143
79
46
143
79
46
143
79
46
80
31
6
80
31
6
80
31
6
80
31
6
80
31
6
80
31
6
80
31
6
80
31
6
80
31
6
80
31
6
80
31
6
23
9
2
143
79
46
194
116
77
137
69
34
80
31
6
80
31
6
80
31
6
80
31
6
80
31
6
80
31
6
80
31
6
80
31
6
80
31
6
80
31
6
80
31
6
80
31
6
23
9
2
143
79
46
194
116
77
137
69
34
80
31
6
80
31
6
80
31
6
80
31
6
80
31
6
80
31
6
80
31
6
80
31
6
80
31
6
80
31
6
80
31
6
80
31
6
23
9
2
143
79
46
194
116
77
137
69
34
80
31
6
80
31
6
80
31
6
80
31
6
80
31
6
80
31
6
80
31
6
80
31
6
80
31
6
80
31
6
80
31
6
80
31
6
23
9
2
143
79
46
194
116
77
137
69
34
80
31
6
80
31
6
80
31
6
80
31
6
80
31
6
80
31
6
80
31
6
80
31
6
80
31
6
80
31
6
80
31
6
49
19
4
23
9
2
143
79
46
137
69
34
80
31
6
80
31
6
80
31
6
80
31
6
80
31
6
80
31
6
80
31
6
80
31
6
80
31
6
80
31
6
80
31
6
80
31
6
49
19
4
23
9
2
143
79
46
137
69
34
80
31
6
80
31
6
80
31
6
80
31
6
80
31
6
80
31
6
80
31
6
80
31
6
80
31
6
80
31
6
80
31
6
80
31
6
49
19
4
23
9
2
143
79
46
137
69
34
80
31
6
80
31
6
80
31
6
80
31
6
80
31
6
80
31
6
80
31
6
80
31
6
80
31
6
80
31
6
80
31
6
80
31
6
49
19
4
23
9
2
143
79
46
137
69
34
80
31
6
80
31
6
80
31
6
80
31
6
80
31
6
80
31
6
80
31
6
80
31
6
80
31
6
80
31
6
49
19
4
49
19
4
49
19
4
23
9
2
137
69
34
80
31
6
80
31
6
80
31
6
80
31
6
80
31
6
80
31
6
80
31
6
80
31
6
80
31
6
80
31
6
80
31
6
49
19
4
49
19
4
49
19
4
23
9
2
137
69
34
80
31
6
80
31
6
80
31
6
80
31
6
80
31
6
80
31
6
80
31
6
80
31
6
80
31
6
80
31
6
80
31
6
49
19
4
49
19
4
49
19
4
23
9
2
137
69
34
80
31
6
80
31
6
80
31
6
80
31
6
80
31
6
80
31
6
80
31
6
80
31
6
80
31
6
80
31
6
80
31
6
49
19
4
49
19
4
49
19
4
23
9
2
137
69
34
80
31
6
80
31
6
80
31
6
23
9
2
23
9
2
23
9
2
23
9
2
23
9
2
23
9
2
23
9
2
23
9
2
23
9
2
23
9
2
23
9
2
23
9
2
23
9
2
23
9
2
23
9
2
23
9
2
23
9
2
23
9
2
23
9
2
23
9
2
23
9
2
23
9
2
23
9
2
23
9
2
23
9
2
23
9
2
23
9
2
23
9
2
23
9
2
23
9
2
23
9
2
23
9
2
23
9
2
23
9
2
23
9
2
23
9
2
23
9
2
23
9
2
23
9
2
23
9
2
23
9
2
23
9
2
23
9
2
23
9
2
23
9
2
23
9
2
23
9
2
23
9
2
23
9
2
23
9
2
23
9
2
23
9
2
23
9
2
23
9
2
23
9
2
23
9
2
23
9
2
23
9
2
23
9
2
23
9
2
23
9
2
23
9
2
23
9
2
23
9
2
123
49
12
123
49
12
23
9
2
194
116
77
143
79
46
143
79
46
143
79
46
143
79
46
143
79
46
143
79
46
143
79
46
143
79
46
123
49
12
123
49
12
123
49
12
123
49
12
123
49
12
123
49
12
23
9
2
194
116
77
143
79
46
143
79
46
143
79
46
143
79
46
143
79
46
143
79
46
143
79
46
143
79
46
123
49
12
123
49
12
123
49
12
123
49
12
123
49
12
123
49
12
23
9
2
194
116
77
143
79
46
143
79
46
143
79
46
143
79
46
143
79
46
143
79
46
143
79
46
143
79
46
123
49
12
123
49
12
123
49
12
123
49
12
123
49
12
123
49
12
23
9
2
194
116
77
143
79
46
143
79
46
143
79
46
143
79
46
143
79
46
143
79
46
143
79
46
143
79
46
123
49
12
123
49
12
123
49
12
123
49
12
80
31
6
80
31
6
23
9
2
143
79
46
194
116
77
137
69
34
80
31
6
80
31
6
80
31
6
80
31
6
80
31
6
80
31
6
80
31
6
80
31
6
80
31
6
80
31
6
80
31
6
80
31
6
23
9
2
143
79
46
194
116
77
137
69
34
80
31
6
80
31
6
80
31
6
80
31
6
80
31
6
80
31
6
80
31
6
80
31
6
80
31
6
80
31
6
80
31
6
80
31
6
23
9
2
143
79
46
194
116
77
137
69
34
80
31
6
80
31
6
80
31
6
80
31
6
80
31
6
80
31
6
80
31
6
80
31
6
80
31
6
80
31
6
80
31
6
80
31
6
23
9
2
143
79
46
194
116
77
137
69
34
80
31
6
80
31
6
80
31
6
80
31
6
80
31
6
80
31
6
80
31
6
80
31
6
80
31
6
80
31
6
80
31
6
49
19
4
23
9
2
143
79
46
137
69
34
80
31
6
80
31
6
80
31
6
80
31
6
80
31
6
80
31
6
80
31
6
80
31
6
80
31
6
80
31
6
80
31
6
80
31
6
49
19
4
23
9
2
143
79
46
137
69
34
80
31
6
80
31
6
80
31
6
80
31
6
80
31
6
80
31
6
80
31
6
80
31
6
80
31
6
80
31
6
80
31
6
80
31
6
49
19
4
23
9
2
143
79
46
137
69
34
80
31
6
80
31
6
80
31
6
80
31
6
80
31
6
80
31
6
80
31
6
80
31
6
80
31
6
80
31
6
80
31
6
80
31
6
49
19
4
23
9
2
143
79
46
137
69
34
80
31
6
80
31
6
80
31
6
80
31
6
80
31
6
80
31
6
80
31
6
80
31
6
80
31
6
80
31
6
80
31
6
49
19
4
49
19
4
23
9
2
137
69
34
80
31
6
80
31
6
80
31
6
80
31
6
80
31
6
80
31
6
80
31
6
80
31
6
80
31
6
80
31
6
80
31
6
49
19
4
49
19
4
49
19
4
23
9
2
137
69
34
80
31
6
80
31
6
80
31
6
80
31
6
80
31
6
80
31
6
80
31
6
80
31
6
80
31
6
80
31
6
80
31
6
49
19
4
49
19
4
49
19
4
23
9
2
137
69
34
80
31
6
80
31
6
80
31
6
80
31
6
80
31
6
80
31
6
80
31
6
80
31
6
80
31
6
80
31
6
80
31
6
49
19
4
49
19
4
49
19
4
23
9
2
137
69
34
80
31
6
80
31
6
80
31
6
80
31
6
80
31
6
80
31
6
80
31
6
80
31
6
80
31
6
80
31
6
80
31
6
49
19
4
23
9
2
23
9
2
23
9
2
23
9
2
23
9
2
23
9
2
23
9
2
23
9
2
23
9
2
23
9
2
23
9
2
23
9
2
23
9
2
23
9
2
23
9
2
23
9
2
23
9
2
23
9
2
23
9
2
23
9
2
23
9
2
23
9
2
23
9
2
23
9
2
23
9
2
23
9
2
23
9
2
23
9
2
23
9
2
23
9
2
23
9
2
23
9
2
23
9
2
23
9
2
23
9
2
23
9
2
23
9
2
23
9
2
23
9
2
23
9
2
23
9
2
23
9
2
23
9
2
23
9
2
23
9
2
23
9
2
23
9
2
23
9
2
23
9
2
23
9
2
23
9
2
23
9
2
23
9
2
23
9
2
23
9
2
23
9
2
23
9
2
23
9
2
23
9
2
23
9
2
23
9
2
23
9
2
23
9
2
23
9
2
143
79
46
143
79
46
123
49
12
123
49
12
123
49
12
123
49
12
123
49
12
123
49
12
23
9
2
194
116
77
143
79
46
143
79
46
143
79
46
143
79
46
143
79
46
143
79
46
143
79
46
143
79
46
123
49
12
123
49
12
123
49
12
123
49
12
123
49
12
123
49
12
23
9
2
194
116
77
143
79
46
143
79
46
143
79
46
143
79
46
143
79
46
143
79
46
143
79
46
143
79
46
123
49
12
123
49
12
123
49
12
123
49
12
123
49
12
123
49
12
23
9
2
194
116
77
143
79
46
143
79
46
143
79
46
143
79
46
143
79
46
143
79
46
143
79
46
143
79
46
123
49
12
123
49
12
123
49
12
123
49
12
123
49
12
123
49
12
23
9
2
194
116
77
143
79
46
143
79
46
143
79
46
143
79
46
143
79
46
143
79
46
80
31
6
80
31
6
80
31
6
80
31
6
80
31
6
80
31
6
80
31
6
80
31
6
23
9
2
143
79
46
194
116
77
137
69
34
80
31
6
80
31
6
80
31
6
80
31
6
80
31
6
80
31
6
80
31
6
80
31
6
80
31
6
80
31
6
80
31
6
80
31
6
23
9
2
143
79
46
194
116
77
137
69
34
80
31
6
80
31
6
80
31
6
80
31
6
80
31
6
80
31
6
80
31
6
80
31
6
80
31
6
80
31
6
80
31
6
80
31
6
23
9
2
143
79
46
194
116
77
137
69
34
80
31
6
80
31
6
80
31
6
80
31
6
80
31
6
80
31
6
80
31
6
80
31
6
80
31
6
80
31
6
80
31
6
80
31
6
23
9
2
143
79
46
194
116
77
137
69
34
80
31
6
80
31
6
80
31
6
80
31
6
80
31
6
80
31
6
80
31
6
80
31
6
80
31
6
80
31
6
80
31
6
49
19
4
23
9
2
143
79
46
137
69
34
80
31
6
80
31
6
80
31
6
80
31
6
80
31
6
80
31
6
80
31
6
80
31
6
80
31
6
80
31
6
80
31
6
80
31
6
49
19
4
23
9
2
143
79
46
137
69
34
80
31
6
80
31
6
80
31
6
80
31
6
80
31
6
80
31
6
80
31
6
80
31
6
80
31
6
80
31
6
80
31
6
80
31
6
49
19
4
23
9
2
143
79
46
137
69
34
80
31
6
80
31
6
80
31
6
80
31
6
80
31
6
80
31
6
80
31
6
80
31
6
80
31
6
80
31
6
80
31
6
80
31
6
49
19
4
23
9
2
143
79
46
137
69
34
80
31
6
80
31
6
80
31
6
80
31
6
80
31
6
80
31
6
80
31
6
80
31
6
80
31
6
80
31
6
49
19
4
49
19
4
49
19
4
23
9
2
137
69
34
80
31
6
80
31
6
80
31
6
80
31
6
80
31
6
80
31
6
80
31
6
80
31
6
80
31
6
80
31
6
80
31
6
49
19
4
49
19
4
49
19
4
23
9
2
137
69
34
80
31
6
80
31
6
80
31
6
80
31
6
80
31
6
80
31
6
80
31
6
80
31
6
80
31
6
80
31
6
80
31
6
49
19
4
49
19
4
49
19
4
23
9
2
137
69
34
80
31
6
80
31
6
80
31
6
80
31
6
80
31
6
80
31
6
80
31
6
80
31
6
80
31
6
80
31
6
80
31
6
49
19
4
49
19
4
49
19
4
23
9
2
137
69
34
80
31
6
80
31
6
80
31
6
80
31
6
80
31
6
80
31
6
23
9
2
23
9
2
23
9
2
23
9
2
23
9
2
23
9
2
23
9
2
23
9
2
23
9
2
23
9
2
23
9
2
23
9
2
23
9
2
23
9
2
23
9
2
23
9
2
23
9
2
23
9
2
23
9
2
23
9
2
23
9
2
23
9
2
23
9
2
23
9
2
23
9
2
23
9
2
23
9
2
23
9
2
23
9
2
23
9
2
23
9
2
23
9
2
23
9
2
23
9
2
23
9
2
23
9
2
23
9
2
23
9
2
23
9
2
23
9
2
23
9
2
23
9
2
23
9
2
23
9
2
23
9
2
23
9
2
23
9
2
23
9
2
23
9
2
23
9
2
23
9
2
23
9
2
23
9
2
23
9
2
23
9
2
23
9
2
23
9
2
23
9
2
23
9
2
23
9
2
23
9
2
23
9
2
23
9
2
23
9
2
143
79
46
143
79
46
143
79
46
143
79
46
143
79
46
143
79
46
143
79
46
143
79
46
123
49
12
123
49
12
123
49
12
123
49
12
123
49
12
123
49
12
23
9
2
194
116
77
143
79
46
143
79
46
143
79
46
143
79
46
143
79
46
143
79
46
143
79
46
143
79
46
123
49
12
123
49
12
123
49
12
123
49
12
123
49
12
123
49
12
23
9
2
194
116
77
143
79
46
143
79
46
143
79
46
143
79
46
143
79
46
143
79
46
143
79
46
143
79
46
123
49
12
123
49
12
123
49
12
123
49
12
123
49
12
123
49
12
23
9
2
194
116
77
143
79
46
143
79
46
143
79
46
143
79
46
143
79
46
143
79
46
143
79
46
143
79
46
123
49
12
123
49
12
123
49
12
123
49
12
123
49
12
123
49
12
23
9
2
194
116
77
194
116
77
137
69
34
80
31
6
80
31
6
80
31
6
80
31
6
80
31
6
80
31
6
80
31
6
80
31
6
80
31
6
80
31
6
80
31
6
80
31
6
23
9
2
143
79
46
194
116
77
137
69
34
80
31
6
80
31
6
80
31
6
80
31
6
80
31
6
80
31
6
80
31
6
80
31
6
80
31
6
80
31
6
80
31
6
80
31
6
23
9
2
143
79
46
194
116
77
137
69
34
80
31
6
80
31
6
80
31
6
80
31
6
80
31
6
80
31
6
80
31
6
80
31
6
80
31
6
80
31
6
80
31
6
80
31
6
23
9
2
143
79
46
194
116
77
137
69
34
80
31
6
80
31
6
80
31
6
80
31
6
80
31
6
80
31
6
80
31
6
80
31
6
80
31
6
80
31
6
80
31
6
80
31
6
23
9
2
143
79
46
137
69
34
80
31
6
80
31
6
80
31
6
80
31
6
80
31
6
80
31
6
80
31
6
80
31
6
80
31
6
80
31
6
80
31
6
80
31
6
49
19
4
23
9
2
143
79
46
137
69
34
80
31
6
80
31
6
80
31
6
80
31
6
80
31
6
80
31
6
80
31
6
80
31
6
80
31
6
80
31
6
80
31
6
80
31
6
49
19
4
23
9
2
143
79
46
137
69
34
80
31
6
80
31
6
80
31
6
80
31
6
80
31
6
80
31
6
80
31
6
80
31
6
80
31
6
80
31
6
80
31
6
80
31
6
49
19
4
23
9
2
143
79
46
137
69
34
80
31
6
80
31
6
80
31
6
80
31
6
80
31
6
80
31
6
80
31
6
80
31
6
80
31
6
80
31
6
80
31
6
80
31
6
49
19
4
23
9
2
143
79
46
80
31
6
80
31
6
80
31
6
80
31
6
80
31
6
80
31
6
80
31
6
80
31
6
80
31
6
80
31
6
80
31
6
49
19
4
49
19
4
49
19
4
23
9
2
137
69
34
80
31
6
80
31
6
80
31
6
80
31
6
80
31
6
80
31
6
80
31
6
80
31
6
80
31
6
80
31
6
80
31
6
49
19
4
49
19
4
49
19
4
23
9
2
137
69
34
80
31
6
80
31
6
80
31
6
80
31
6
80
31
6
80
31
6
80
31
6
80
31
6
80
31
6
80
31
6
80
31
6
49
19
4
49
19
4
49
19
4
23
9
2
137
69
34
80
31
6
80
31
6
80
31
6
80
31
6
80
31
6
80
31
6
80
31
6
80
31
6
80
31
6
80
31
6
80
31
6
49
19
4
49
19
4
49
19
4
23
9
2
137
69
34
23
9
2
23
9
2
23
9
2
23
9
2
23
9
2
23
9
2
23
9
2
23
9
2
23
9
2
23
9
2
23
9
2
23
9
2
23
9
2
23
9
2
23
9
2
23
9
2
23
9
2
23
9
2
23
9
2
23
9
2
23
9
2
23
9
2
23
9
2
23
9
2
23
9
2
23
9
2
23
9
2
23
9
2
23
9
2
23
9
2
23
9
2
23
9
2
23
9
2
23
9
2
23
9
2
23
9
2
23
9
2
23
9
2
23
9
2
23
9
2
23
9
2
23
9
2
23
9
2
23
9
2
23
9
2
23
9
2
23
9
2
23
9
2
23
9
2
23
9
2
23
9
2
23
9
2
23
9
2
23
9
2
23
9
2
23
9
2
23
9
2
23
9
2
23
9
2
23
9
2
23
9
2
23
9
2
23
9
2
23
9
2
123
49
12
123
49
12
123
49
12
123
49
12
23
9
2
194
116
77
143
79
46
143
79
46
143
79
46
143
79
46
143
79
46
143
79
46
143
79
46
143
79
46
123
49
12
123
49
12
123
49
12
123
49
12
123
49
12
123
49
12
23
9
2
194
116
77
143
79
46
143
79
46
143
79
46
143
79
46
143
79
46
143
79
46
143
79
46
143
79
46
123
49
12
123
49
12
123
49
12
123
49
12
123
49
12
123
49
12
23
9
2
194
116
77
143
79
46
143
79
46
143
79
46
143
79
46
143
79
46
143
79
46
143
79
46
143
79
46
123
49
12
123
49
12
123
49
12
123
49
12
123
49
12
123
49
12
23
9
2
194
116
77
143
79
46
143
79
46
143
79
46
143
79
46
143
79
46
143
79
46
143
79
46
143
79
46
123
49
12
123
49
12
80
31
6
80
31
6
80
31
6
80
31
6
23
9
2
143
79
46
194
116
77
137
69
34
80
31
6
80
31
6
80
31
6
80
31
6
80
31
6
80
31
6
80
31
6
80
31
6
80
31
6
80
31
6
80
31
6
80
31
6
23
9
2
143
79
46
194
116
77
137
69
34
80
31
6
80
31
6
80
31
6
80
31
6
80
31
6
80
31
6
80
31
6
80
31
6
80
31
6
80
31
6
80
31
6
80
31
6
23
9
2
143
79
46
194
116
77
137
69
34
80
31
6
80
31
6
80
31
6
80
31
6
80
31
6
80
31
6
80
31
6
80
31
6
80
31
6
80
31
6
80
31
6
80
31
6
23
9
2
143
79
46
194
116
77
137
69
34
80
31
6
80
31
6
80
31
6
80
31
6
80
31
6
80
31
6
80
31
6
80
31
6
80
31
6
80
31
6
80
31
6
49
19
4
23
9
2
143
79
46
137
69
34
80
31
6
80
31
6
80
31
6
80
31
6
80
31
6
80
31
6
80
31
6
80
31
6
80
31
6
80
31
6
80
31
6
80
31
6
49
19
4
23
9
2
143
79
46
137
69
34
80
31
6
80
31
6
80
31
6
80
31
6
80
31
6
80
31
6
80
31
6
80
31
6
80
31
6
80
31
6
80
31
6
80
31
6
49
19
4
23
9
2
143
79
46
137
69
34
80
31
6
80
31
6
80
31
6
80
31
6
80
31
6
80
31
6
80
31
6
80
31
6
80
31
6
80
31
6
80
31
6
80
31
6
49
19
4
23
9
2
143
79
46
137
69
34
80
31
6
80
31
6
80
31
6
80
31
6
80
31
6
80
31
6
80
31
6
80
31
6
80
31
6
80
31
6
49
19
4
49
19
4
49
19
4
23
9
2
137
69
34
80
31
6
80
31
6
80
31
6
80
31
6
80
31
6
80
31
6
80
31
6
80
31
6
80
31
6
80
31
6
80
31
6
49
19
4
49
19
4
49
19
4
23
9
2
137
69
34
80
31
6
80
31
6
80
31
6
80
31
6
80
31
6
80
31
6
80
31
6
80
31
6
80
31
6
80
31
6
80
31
6
49
19
4
49
19
4
49
19
4
23
9
2
137
69
34
80
31
6
80
31
6
80
31
6
80
31
6
80
31
6
80
31
6
80
31
6
80
31
6
80
31
6
80
31
6
80
31
6
49
19
4
49
19
4
49
19
4
23
9
2
137
69
34
80
31
6
80
31
6
80
31
6
80
31
6
80
31
6
80
31
6
80
31
6
80
31
6
80
31
6
80
31
6
23
9
2
23
9
2
23
9
2
23
9
2
23
9
2
23
9
2
23
9
2
23
9
2
23
9
2
23
9
2
23
9
2
23
9
2
23
9
2
23
9
2
23
9
2
23
9
2
23
9
2
23
9
2
23
9
2
23
9
2
23
9
2
23
9
2
23
9
2
23
9
2
23
9
2
23
9
2
23
9
2
23
9
2
23
9
2
23
9
2
23
9
2
23
9
2
23
9
2
23
9
2
23
9
2
23
9
2
23
9
2
23
9
2
23
9
2
23
9
2
23
9
2
23
9
2
23
9
2
23
9
2
23
9
2
23
9
2
23
9
2
23
9
2
23
9
2
23
9
2
23
9
2
23
9
2
23
9
2
23
9
2
23
9
2
23
9
2
23
9
2
23
9
2
23
9
2
23
9
2
23
9
2
23
9
2
23
9
2
23
9
2
143
79
46
143
79
46
143
79
46
143
79
46
123
49
12
123
49
12
123
49
12
123
49
12
123
49
12
123
49
12
23
9
2
194
116
77
143
79
46
143
79
46
143
79
46
143
79
46
143
79
46
143
79
46
143
79
46
143
79
46
123
49
12
123
49
12
123
49
12
123
49
12
123
49
12
123
49
12
23
9
2
194
116
77
143
79
46
143
79
46
143
79
46
143
79
46
143
79
46
143
79
46
143
79
46
143
79
46
123
49
12
123
49
12
123
49
12
123
49
12
123
49
12
123
49
12
23
9
2
194
116
77
143
79
46
143
79
46
143
79
46
143
79
46
143
79
46
143
79
46
143
79
46
143
79
46
123
49
12
123
49
12
123
49
12
123
49
12
123
49
12
123
49
12
23
9
2
194
116
77
143
79
46
143
79
46
143
79
46
143
79
46
80
31
6
80
31
6
80
31
6
80
31
6
80
31
6
80
31
6
80
31
6
80
31
6
80
31
6
80
31
6
23
9
2
143
79
46
194
116
77
137
69
34
80
31
6
80
31
6
80
31
6
80
31
6
80
31
6
80
31
6
80
31
6
80
31
6
80
31
6
80
31
6
80
31
6
80
31
6
23
9
2
143
79
46
194
116
77
137
69
34
80
31
6
80
31
6
80
31
6
80
31
6
80
31
6
80
31
6
80
31
6
80
31
6
80
31
6
80
31
6
80
31
6
80
31
6
23
9
2
143
79
46
194
116
77
137
69
34
80
31
6
80
31
6
80
31
6
80
31
6
80
31
6
80
31
6
80
31
6
80
31
6
80
31
6
80
31
6
80
31
6
80
31
6
23
9
2
143
79
46
194
116
77
137
69
34
80
31
6
80
31
6
80
31
6
80
31
6
80
31
6
80
31
6
80
31
6
80
31
6
80
31
6
80
31
6
80
31
6
49
19
4
23
9
2
143
79
46
137
69
34
80
31
6
80
31
6
80
31
6
80
31
6
80
31
6
80
31
6
80
31
6
80
31
6
80
31
6
80
31
6
80
31
6
80
31
6
49
19
4
23
9
2
143
79
46
137
69
34
80
31
6
80
31
6
80
31
6
80
31
6
80
31
6
80
31
6
80
31
6
80
31
6
80
31
6
80
31
6
80
31
6
80
31
6
49
19
4
23
9
2
143
79
46
137
69
34
80
31
6
80
31
6
80
31
6
80
31
6
80
31
6
80
31
6
80
31
6
80
31
6
80
31
6
80
31
6
80
31
6
80
31
6
49
19
4
23
9
2
143
79
46
137
69
34
80
31
6
80
31
6
80
31
6
80
31
6
80
31
6
80
31
6
80
31
6
80
31
6
80
31
6
80
31
6
49
19
4
49
19
4
49
19
4
23
9
2
137
69
34
80
31
6
80
31
6
80
31
6
80
31
6
80
31
6
80
31
6
80
31
6
80
31
6
80
31
6
80
31
6
80
31
6
49
19
4
49
19
4
49
19
4
23
9
2
137
69
34
80
31
6
80
31
6
80
31
6
80
31
6
80
31
6
80
31
6
80
31
6
80
31
6
80
31
6
80
31
6
80
31
6
49
19
4
49
19
4
49
19
4
23
9
2
137
69
34
80
31
6
80
31
6
80
31
6
80
31
6
80
31
6
80
31
6
80
31
6
80
31
6
80
31
6
80
31
6
80
31
6
49
19
4
49
19
4
49
19
4
23
9
2
137
69
34
80
31
6
80
31
6
80
31
6
80
31
6
23
9
2
23
9
2
23
9
2
23
9
2
23
9
2
23
9
2
23
9
2
23
9
2
23
9
2
23
9
2
23
9
2
23
9
2
23
9
2
23
9
2
23
9
2
23
9
2
23
9
2
23
9
2
23
9
2
23
9
2
23
9
2
23
9
2
23
9
2
23
9
2
23
9
2
23
9
2
23
9
2
23
9
2
23
9
2
23
9
2
23
9
2
23
9
2
23
9
2
23
9
2
23
9
2
23
9
2
23
9
2
23
9
2
23
9
2
23
9
2
23
9
2
23
9
2
23
9
2
23
9
2
23
9
2
23
9
2
23
9
2
23
9
2
23
9
2
23
9
2
23
9
2
23
9
2
23
9
2
23
9
2
23
9
2
23
9
2
23
9
2
23
9
2
23
9
2
23
9
2
23
9
2
23
9
2
23
9
2
23
9
2
23
9
2
194
116
77
143
79
46
143
79
46
143
79
46
143
79
46
143
79
46
143
79
46
143
79
46
143
79
46
123
49
12
123
49
12
123
49
12
123
49
12
123
49
12
123
49
12
23
9
2
194
116
77
143
79
46
143
79
46
143
79
46
143
79
46
143
79
46
143
79
46
143
79
46
143
79
46
123
49
12
123
49
12
123
49
12
123
49
12
123
49
12
123
49
12
23
9
2
194
116
77
143
79
46
143
79
46
143
79
46
143
79
46
143
79
46
143
79
46
143
79
46
143
79
46
123
49
12
123
49
12
123
49
12
123
49
12
123
49
12
123
49
12
23
9
2
194
116
77
143
79
46
143
79
46
143
79
46
143
79
46
143
79
46
143
79
46
143
79
46
143
79
46
123
49
12
123
49
12
123
49
12
123
49
12
123
49
12
123
49
12
23
9
2
143
79
46
194
116
77
137
69
34
80
31
6
80
31
6
80
31
6
80
31
6
80
31
6
80
31
6
80
31
6
80
31
6
80
31
6
80
31
6
80
31
6
80
31
6
23
9
2
143
79
46
194
116
77
137
69
34
80
31
6
80
31
6
80
31
6
80
31
6
80
31
6
80
31
6
80
31
6
80
31
6
80
31
6
80
31
6
80
31
6
80
31
6
23
9
2
143
79
46
194
116
77
137
69
34
80
31
6
80
31
6
80
31
6
80
31
6
80
31
6
80
31
6
80
31
6
80
31
6
80
31
6
80
31
6
80
31
6
80
31
6
23
9
2
143
79
46
194
116
77
137
69
34
80
31
6
80
31
6
80
31
6
80
31
6
80
31
6
80
31
6
80
31
6
80
31
6
80
31
6
80
31
6
80
31
6
80
31
6
23
9
2
143
79
46
137
69
34
80
31
6
80
31
6
80
31
6
80
31
6
80
31
6
80
31
6
80
31
6
80
31
6
80
31
6
80
31
6
80
31
6
80
31
6
49
19
4
23
9
2
143
79
46
137
69
34
80
31
6
80
31
6
80
31
6
80
31
6
80
31
6
80
31
6
80
31
6
80
31
6
80
31
6
80
31
6
80
31
6
80
31
6
49
19
4
23
9
2
143
79
46
137
69
34
80
31
6
80
31
6
80
31
6
80
31
6
80
31
6
80
31
6
80
31
6
80
31
6
80
31
6
80
31
6
80
31
6
80
31
6
49
19
4
23
9
2
143
79
46
137
69
34
80
31
6
80
31
6
80
31
6
80
31
6
80
31
6
80
31
6
80
31
6
80
31
6
80
31
6
80
31
6
80
31
6
80
31
6
49
19
4
23
9
2
137
69
34
80
31
6
80
31
6
80
31
6
80
31
6
80
31
6
80
31
6
80
31
6
80
31
6
80
31
6
80
31
6
80
31
6
49
19
4
49
19
4
49
19
4
23
9
2
137
69
34
80
31
6
80
31
6
80
31
6
80
31
6
80
31
6
80
31
6
80
31
6
80
31
6
80
31
6
80
31
6
80
31
6
49
19
4
49
19
4
49
19
4
23
9
2
137
69
34
80
31
6
80
31
6
80
31
6
80
31
6
80
31
6
80
31
6
80
31
6
80
31
6
80
31
6
80
31
6
80
31
6
49
19
4
49
19
4
49
19
4
23
9
2
137
69
34
80
31
6
80
31
6
80
31
6
80
31
6
80
31
6
80
31
6
80
31
6
80
31
6
80
31
6
80
31
6
80
31
6
49
19
4
49
19
4
49
19
4
23
9
2
23
9
2
23
9
2
23
9
2
23
9
2
23
9
2
23
9
2
23
9
2
23
9
2
23
9
2
23
9
2
23
9
2
23
9
2
23
9
2
23
9
2
23
9
2
23
9
2
23
9
2
23
9
2
23
9
2
23
9
2
23
9
2
23
9
2
23
9
2
23
9
2
23
9
2
23
9
2
23
9
2
23
9
2
23
9
2
23
9
2
23
9
2
23
9
2
23
9
2
23
9
2
23
9
2
23
9
2
23
9
2
23
9
2
23
9
2
23
9
2
23
9
2
23
9
2
23
9
2
23
9
2
23
9
2
23
9
2
23
9
2
23
9
2
23
9
2
23
9
2
23
9
2
23
9
2
23
9
2
23
9
2
23
9
2
23
9
2
23
9
2
23
9
2
23
9
2
23
9
2
23
9
2
23
9
2
23
9
2
123
49
12
123
49
12
123
49
12
123
49
12
123
49
12
123
49
12
23
9
2
194
116
77
143
79
46
143
79
46
143
79
46
143
79
46
143
79
46
143
79
46
143
79
46
143
79
46
123
49
12
123
49
12
123
49
12
123
49
12
123
49
12
123
49
12
23
9
2
194
116
77
143
79
46
143
79
46
143
79
46
143
79
46
143
79
46
143
79
46
143
79
46
143
79
46
123
49
12
123
49
12
123
49
12
123
49
12
123
49
12
123
49
12
23
9
2
194
116
77
143
79
46
143
79
46
143
79
46
143
79
46
143
79
46
143
79
46
143
79
46
143
79
46
123
49
12
123
49
12
123
49
12
123
49
12
123
49
12
123
49
12
23
9
2
194
116
77
143
79
46
143
79
46
143
79
46
143
79
46
143
79
46
143
79
46
143
79
46
143
79
46
80
31
6
80
31
6
80
31
6
80
31
6
80
31
6
80
31
6
23
9
2
143
79
46
194
116
77
137
69
34
80
31
6
80
31
6
80
31
6
80
31
6
80
31
6
80
31
6
80
31
6
80
31
6
80
31
6
80
31
6
80
31
6
80
31
6
23
9
2
143
79
46
194
116
77
137
69
34
80
31
6
80
31
6
80
31
6
80
31
6
80
31
6
80
31
6
80
31
6
80
31
6
80
31
6
80
31
6
80
31
6
80
31
6
23
9
2
143
79
46
194
116
77
137
69
34
80
31
6
80
31
6
80
31
6
80
31
6
80
31
6
80
31
6
80
31
6
80
31
6
80
31
6
80
31
6
80
31
6
80
31
6
23
9
2
143
79
46
194
116
77
137
69
34
80
31
6
80
31
6
80
31
6
80
31
6
80
31
6
80
31
6
80
31
6
80
31
6
80
31
6
80
31
6
80
31
6
49
19
4
23
9
2
143
79
46
137
69
34
80
31
6
80
31
6
80
31
6
80
31
6
80
31
6
80
31
6
80
31
6
80
31
6
80
31
6
80
31
6
80
31
6
80
31
6
49
19
4
23
9
2
143
79
46
137
69
34
80
31
6
80
31
6
80
31
6
80
31
6
80
31
6
80
31
6
80
31
6
80
31
6
80
31
6
80
31
6
80
31
6
80
31
6
49
19
4
23
9
2
143
79
46
137
69
34
80
31
6
80
31
6
80
31
6
80
31
6
80
31
6
80
31
6
80
31
6
80
31
6
80
31
6
80
31
6
80
31
6
80
31
6
49
19
4
23
9
2
143
79
46
137
69
34
80
31
6
80
31
6
80
31
6
80
31
6
80
31
6
80
31
6
80
31
6
80
31
6
80
31
6
80
31
6
49
19
4
49
19
4
49
19
4
23
9
2
137
69
34
80
31
6
80
31
6
80
31
6
80
31
6
80
31
6
80
31
6
80
31
6
80
31
6
80
31
6
80
31
6
80
31
6
49
19
4
49
19
4
49
19
4
23
9
2
137
69
34
80
31
6
80
31
6
80
31
6
80
31
6
80
31
6
80
31
6
80
31
6
80
31
6
80
31
6
80
31
6
80
31
6
49
19
4
49
19
4
49
19
4
23
9
2
137
69
34
80
31
6
80
31
6
80
31
6
80
31
6
80
31
6
80
31
6
80
31
6
80
31
6
80
31
6
80
31
6
80
31
6
49
19
4
49
19
4
49
19
4
23
9
2
137
69
34
80
31
6
80
31
6
80
31
6
80
31
6
80
31
6
80
31
6
80
31
6
80
31
6
23
9
2
23
9
2
23
9
2
23
9
2
23
9
2
23
9
2
23
9
2
23
9
2
23
9
2
23
9
2
23
9
2
23
9
2
23
9
2
23
9
2
23
9
2
23
9
2
23
9
2
23
9
2
23
9
2
23
9
2
23
9
2
23
9
2
23
9
2
23
9
2
23
9
2
23
9
2
23
9
2
23
9
2
23
9
2
23
9
2
23
9
2
23
9
2
23
9
2
23
9
2
23
9
2
23
9
2
23
9
2
23
9
2
23
9
2
23
9
2
23
9
2
23
9
2
23
9
2
23
9
2
23
9
2
23
9
2
23
9
2
23
9
2
23
9
2
23
9
2
23
9
2
23
9
2
23
9
2
23
9
2
23
9
2
23
9
2
23
9
2
23
9
2
23
9
2
23
9
2
23
9
2
23
9
2
23
9
2
23
9
2
143
79
46
143
79
46
143
79
46
143
79
46
143
79
46
143
79
46
123
49
12
123
49
12
123
49
12
123
49
12
123
49
12
123
49
12
23
9
2
194
116
77
143
79
46
143
79
46
143
79
46
143
79
46
143
79
46
143
79
46
143
79
46
143
79
46
123
49
12
123
49
12
123
49
12
123
49
12
123
49
12
123
49
12
23
9
2
194
116
77
143
79
46
143
79
46
143
79
46
143
79
46
143
79
46
143
79
46
143
79
46
143
79
46
123
49
12
123
49
12
123
49
12
123
49
12
123
49
12
123
49
12
23
9
2
194
116
77
143
79
46
143
79
46
143
79
46
143
79
46
143
79
46
143
79
46
143
79
46
143
79
46
123
49
12
123
49
12
123
49
12
123
49
12
123
49
12
123
49
12
23
9
2
194
116
77
143
79
46
143
79
46
80
31
6
80
31
6
80
31
6
80
31
6
80
31
6
80
31
6
80
31
6
80
31
6
80
31
6
80
31
6
80
31
6
80
31
6
23
9
2
143
79
46
194
116
77
137
69
34
80
31
6
80
31
6
80
31
6
80
31
6
80
31
6
80
31
6
80
31
6
80
31
6
80
31
6
80
31
6
80
31
6
80
31
6
23
9
2
143
79
46
194
116
77
137
69
34
80
31
6
80
31
6
80
31
6
80
31
6
80
31
6
80
31
6
80
31
6
80
31
6
80
31
6
80
31
6
80
31
6
80
31
6
23
9
2
143
79
46
194
116
77
137
69
34
80
31
6
80
31
6
80
31
6
80
31
6
80
31
6
80
31
6
80
31
6
80
31
6
80
31
6
80
31
6
80
31
6
80
31
6
23
9
2
143
79
46
194
116
77
137
69
34
80
31
6
80
31
6
80
31
6
80
31
6
80
31
6
80
31
6
80
31
6
80
31
6
80
31
6
80
31
6
80
31
6
49
19
4
23
9
2
143
79
46
137
69
34
80
31
6
80
31
6
80
31
6
80
31
6
80
31
6
80
31
6
80
31
6
80
31
6
80
31
6
80
31
6
80
31
6
80
31
6
49
19
4
23
9
2
143
79
46
137
69
34
80
31
6
80
31
6
80
31
6
80
31
6
80
31
6
80
31
6
80
31
6
80
31
6
80
31
6
80
31
6
80
31
6
80
31
6
49
19
4
23
9
2
143
79
46
137
69
34
80
31
6
80
31
6
80
31
6
80
31
6
80
31
6
80
31
6
80
31
6
80
31
6
80
31
6
80
31
6
80
31
6
80
31
6
49
19
4
23
9
2
143
79
46
137
69
34
80
31
6
80
31
6
80
31
6
80
31
6
80
31
6
80
31
6
80
31
6
80
31
6
80
31
6
80
31
6
49
19
4
49
19
4
49
19
4
23
9
2
137
69
34
80
31
6
80
31
6
80
31
6
80
31
6
80
31
6
80
31
6
80
31
6
80
31
6
80
31
6
80
31
6
80
31
6
49
19
4
49
19
4
49
19
4
23
9
2
137
69
34
80
31
6
80
31
6
80
31
6
80
31
6
80
31
6
80
31
6
80
31
6
80
31
6
80
31
6
80
31
6
80
31
6
49
19
4
49
19
4
49
19
4
23
9
2
137
69
34
80
31
6
80
31
6
80
31
6
80
31
6
80
31
6
80
31
6
80
31
6
80
31
6
80
31
6
80
31
6
80
31
6
49
19
4
49
19
4
49
19
4
23
9
2
137
69
34
80
31
6
80
31
6
23
9
2
23
9
2
23
9
2
23
9
2
23
9
2
23
9
2
23
9
2
23
9
2
23
9
2
23
9
2
23
9
2
23
9
2
23
9
2
23
9
2
23
9
2
23
9
2
23
9
2
23
9
2
23
9
2
23
9
2
23
9
2
23
9
2
23
9
2
23
9
2
23
9
2
23
9
2
23
9
2
23
9
2
23
9
2
23
9
2
23
9
2
23
9
2
23
9
2
23
9
2
23
9
2
23
9
2
23
9
2
23
9
2
23
9
2
23
9
2
23
9
2
23
9
2
23
9
2
23
9
2
23
9
2
23
9
2
23
9
2
23
9
2
23
9
2
23
9
2
23
9
2
23
9
2
23
9
2
23
9
2
23
9
2
23
9
2
23
9
2
23
9
2
23
9
2
23
9
2
23
9
2
23
9
2
23
9
2
23
9
2
23
9
2
194
116
77
143
79
46
143
79
46
143
79
46
143
79
46
143
79
46
143
79
46
143
79
46
143
79
46
123
49
12
123
49
12
123
49
12
123
49
12
123
49
12
123
49
12
23
9
2
194
116
77
143
79
46
143
79
46
143
79
46
143
79
46
143
79
46
143
79
46
143
79
46
143
79
46
123
49
12
123
49
12
123
49
12
123
49
12
123
49
12
123
49
12
23
9
2
194
116
77
143
79
46
143
79
46
143
79
46
143
79
46
143
79
46
143
79
46
143
79
46
143
79
46
123
49
12
123
49
12
123
49
12
123
49
12
123
49
12
123
49
12
23
9
2
194
116
77
143
79
46
143
79
46
143
79
46
143
79
46
143
79
46
143
79
46
143
79
46
143
79
46
123
49
12
123
49
12
123
49
12
123
49
12
123
49
12
123
49
12
23
9
2
143
79
46
194
116
77
137
69
34
80
31
6
80
31
6
80
31
6
80
31
6
80
31
6
80
31
6
80
31
6
80
31
6
80
31
6
80
31
6
80
31
6
80
31
6
23
9
2
143
79
46
194
116
77
137
69
34
80
31
6
80
31
6
80
31
6
80
31
6
80
31
6
80
31
6
80
31
6
80
31
6
80
31
6
80
31
6
80
31
6
80
31
6
23
9
2
143
79
46
194
116
77
137
69
34
80
31
6
80
31
6
80
31
6
80
31
6
80
31
6
80
31
6
80
31
6
80
31
6
80
31
6
80
31
6
80
31
6
80
31
6
23
9
2
143
79
46
194
116
77
137
69
34
80
31
6
80
31
6
80
31
6
80
31
6
80
31
6
80
31
6
80
31
6
80
31
6
80
31
6
80
31
6
80
31
6
80
31
6
23
9
2
143
79
46
137
69
34
80
31
6
80
31
6
80
31
6
80
31
6
80
31
6
80
31
6
80
31
6
80
31
6
80
31
6
80
31
6
80
31
6
80
31
6
49
19
4
23
9
2
143
79
46
137
69
34
80
31
6
80
31
6
80
31
6
80
31
6
80
31
6
80
31
6
80
31
6
80
31
6
80
31
6
80
31
6
80
31
6
80
31
6
49
19
4
23
9
2
143
79
46
137
69
34
80
31
6
80
31
6
80
31
6
80
31
6
80
31
6
80
31
6
80
31
6
80
31
6
80
31
6
80
31
6
80
31
6
80
31
6
49
19
4
23
9
2
143
79
46
137
69
34
80
31
6
80
31
6
80
31
6
80
31
6
80
31
6
80
31
6
80
31
6
80
31
6
80
31
6
80
31
6
80
31
6
80
31
6
49
19
4
23
9
2
137
69
34
80
31
6
80
31
6
80
31
6
80
31
6
80
31
6
80
31
6
80
31
6
80
31
6
80
31
6
80
31
6
80
31
6
49
19
4
49
19
4
49
19
4
23
9
2
137
69
34
80
31
6
80
31
6
80
31
6
80
31
6
80
31
6
80
31
6
80
31
6
80
31
6
80
31
6
80
31
6
80
31
6
49
19
4
49
19
4
49
19
4
23
9
2
137
69
34
80
31
6
80
31
6
80
31
6
80
31
6
80
31
6
80
31
6
80
31
6
80
31
6
80
31
6
80
31
6
80
31
6
49
19
4
49
19
4
49
19
4
23
9
2
137
69
34
80
31
6
80
31
6
80
31
6
80
31
6
80
31
6
80
31
6
80
31
6
80
31
6
80
31
6
80
31
6
80
31
6
49
19
4
49
19
4
49
19
4
